HIERARCHY
ROOT Hips
{
	OFFSET	0.00	0.00	0.00
	CHANNELS 6 Xposition Yposition Zposition Zrotation Xrotation Yrotation
	JOINT Spine
	{
		OFFSET	 0.00	0.01	 0.00
		CHANNELS 3 Zrotation Xrotation Yrotation
		JOINT Spine1
		{
			OFFSET	 0.00	 2.45913012437421	 0.00
			CHANNELS 3 Zrotation Xrotation Yrotation
            JOINT Neck
            {
                OFFSET	 0.00	 2.48462964506057	 0.00
                CHANNELS 3 Zrotation Xrotation Yrotation
                JOINT Head
                {
                    OFFSET	 0.00	 0.927524780924562	 0.00
                    CHANNELS 3 Zrotation Xrotation Yrotation
                    End Site 
                    {
                        OFFSET	 0.00	 1.14999962169752	 0.00
                    }
                }
            }
			JOINT LeftShoulder
			{
				OFFSET	 0.00	 2.48462964506057	 0.00
				CHANNELS 3 Zrotation Xrotation Yrotation
				JOINT LeftUpArm
				{
					OFFSET	 0.00	 1.24881979654096	 0.00
					CHANNELS 3 Zrotation Xrotation Yrotation
					JOINT LeftForeArm
					{
						OFFSET	 0.00	2.59758046908119	 0.00
						CHANNELS 3 Zrotation Xrotation Yrotation
						JOINT LeftHand
						{
							OFFSET	 0.00	2.45542024364365	 0.00
							CHANNELS 3 Zrotation Xrotation Yrotation
							JOINT LeftHandThumb 
							{
								OFFSET	 0.00	0.00	 0.00
								CHANNELS 3 Zrotation Xrotation Yrotation
								End Site
								{
									OFFSET	 0.00	0.00	1.00000003353624
								}
							}
							JOINT L_Wrist_End 
							{
								OFFSET	 0.00	0.99999967115358	 0.00
								CHANNELS 3 Zrotation Xrotation Yrotation
								End Site 
								{
									OFFSET	 0.00	 0.00	 0.00
								}
							}
						}
					}
				}
			}
			JOINT RightShoulder
			{
				OFFSET	 0.00	 2.48462964506057	 0.00
				CHANNELS 3 Zrotation Xrotation Yrotation
				JOINT RightUpArm
				{
					OFFSET	 0.00	 1.24881979654096	 0.00
					CHANNELS 3 Zrotation Xrotation Yrotation
					JOINT RightForeArm
					{
						OFFSET	 0.00	2.59758046908119	 0.00
						CHANNELS 3 Zrotation Xrotation Yrotation
						JOINT RightHand
						{
							OFFSET	 0.00	2.45542024364365	 0.00
							CHANNELS 3 Zrotation Xrotation Yrotation
							JOINT RightHandThumb 
							{
								OFFSET	 0.00	0.00	 0.00
								CHANNELS 3 Zrotation Xrotation Yrotation
								End Site
								{
									OFFSET	 0.00	0.00	1.00000003353624
								}
							}
							JOINT R_Wrist_End 
							{
								OFFSET	 0.00	0.99999967115358	 0.00
								CHANNELS 3 Zrotation Xrotation Yrotation
								End Site 
								{
									OFFSET	 0.00	 0.00	 0.00
								}
							}
						}
					}
				}
			}
		}
	}
	JOINT LeftUpLeg
	{
		OFFSET	 1.2719394002717	 0.00	 0.00
		CHANNELS 3 Zrotation Xrotation Yrotation
		JOINT LeftLowLeg
		{
			OFFSET	 0.00	-4.3429100912261	 0.00
			CHANNELS 3 Zrotation Xrotation Yrotation
			JOINT LeftFoot
			{
				OFFSET	 0.00	-4.48767017425826	 0.00
				CHANNELS 3 Zrotation Xrotation Yrotation
				JOINT LeftToeBase
                {
                    OFFSET	 0.00	0.00	 1.51507020887566
                    CHANNELS 3 Zrotation Xrotation Yrotation
                    End Site 
                    {
                        OFFSET	 0.00	0.00	 0.75000010571191
                    }
                }
			}
		}
	}
	JOINT RightUpLeg
	{
		OFFSET	 -1.2719393604653	 0.00	 0.00
		CHANNELS 3 Zrotation Xrotation Yrotation
		JOINT RightLowLeg
		{
			OFFSET	 0.00	-4.3429100912261	 0.00
			CHANNELS 3 Zrotation Xrotation Yrotation
			JOINT RightFoot
			{
				OFFSET	 0.00	-4.48767017425826	 0.00
				CHANNELS 3 Zrotation Xrotation Yrotation
				JOINT RightToeBase
                {
                    OFFSET	 0.00	0.00	 1.51507020887566
                    CHANNELS 3 Zrotation Xrotation Yrotation
                    End Site 
                    {
                        OFFSET	 0.00	0.00	 0.749999965609858
                    }
                }   
			}
		}
	}
}
MOTION 
Frames:	18 
Frame Time: 0.02 
  1.5431500244140626 0.47151401519775393 6.860150146484375 -32.4181 51.0248 12.8475 -10.863 9.05421 2.93516 20.7414 30.2661 4.33351 0.496714 68.2798 -38.5833 112.494 -49.1354 809.235 -111.652 5.87553 16.5802 -52.6311 -18.5913 37.9388 0.0 46.8129 0.0 91.9674 -23.6556 -6.31126 0.0 0.0 0.0 0.0 0.0 0.0 113.5974 9.31398 -383.929 16.0925 34.658 -19.5991 0.0 104.912 0.0 -25.141 -0.699238 -18.6588 0.0 0.0 0.0 0.0 0.0 0.0 1.94097 -37.1906 5.08819 0.0 45.1034 0.0 -26.6461 23.043861 9.6095 0.0 -49.4211 0.0 6.1575 -19.8145 1.59113 0.0 32.2312 0.0 20.9689 34.8618 2.06238 0.0 -45.3796 0.0 
  1.5590299987792968 0.45816200256347656 6.85718994140625 -31.6076 50.6797 13.2089 -11.0301 9.36041 2.37897 21.6453 30.6331 3.56165 -1.90698 68.1254 -34.4571 110.835 -48.3632 808.169 -112.7938 5.17203 16.2048 -50.2396 -19.0742 40.9879 0.0 48.9413 0.0 90.952 -25.8459 -6.66778 0.0 0.0 0.0 0.0 0.0 0.0 113.0698 8.34387 -382.632 16.2576 29.7193 -17.4459 0.0 108.395 0.0 -30.7359 1.78686 -19.9719 0.0 0.0 0.0 0.0 0.0 0.0 2.00846 -37.1929 3.33916 0.0 46.8619 0.0 -25.3226 23.56464 9.92516 0.0 -49.9244 0.0 5.90103 -20.1012 2.41107 0.0 33.925 0.0 20.9844 34.4085 4.69444 0.0 -45.4095 0.0 
  1.5748100280761719 0.4462670135498047 6.85541015625 -30.4845 50.4552 13.3915 -11.4623 9.63535 1.84796 22.7346 31.0363 2.73078 -4.45505 67.7871 -30.2454 109.375 -47.618 807.34 -114.0267 4.35706 15.8094 -47.677 -19.2264 44.2871 0.0 51.0194 0.0 90.252 -28.4244 -6.87546 0.0 0.0 0.0 0.0 0.0 0.0 112.5587 7.08353 -381.243 16.4926 24.8162 -15.1257 0.0 111.062 0.0 -34.4682 3.46772 -16.823 0.0 0.0 0.0 0.0 0.0 0.0 1.71912 -37.0083 1.34834 0.0 48.248 0.0 -24.635 24.15754 10.2527 0.0 -50.7431 0.0 5.56696 -20.3669 3.63624 0.0 35.5921 0.0 21.4319 34.205 7.59911 0.0 -46.0392 0.0 
  1.5867500305175781 0.4302429962158203 6.853250122070312 -29.5996 50.3304 13.6717 -11.7834 9.71372 1.36999 23.8304 31.3692 2.0067 -6.73589 67.4168 -26.3948 107.745 -47.0295 806.289 -115.1098 3.68351 15.5717 -45.3346 -19.2764 47.293 0.0 52.9545 0.0 88.6776 -30.5184 -8.00299 0.0 0.0 0.0 0.0 0.0 0.0 112.0076 5.70813 -379.865 17.0497 19.8868 -13.0392 0.0 112.721 0.0 -38.5919 4.29431 -13.9726 0.0 0.0 0.0 0.0 0.0 0.0 1.76666 -37.0186 -0.108048 0.0 49.8539 0.0 -24.4083 24.70403 10.2747 0.0 -51.5057 0.0 5.4908 -20.6695 5.0016 0.0 37.176 0.0 21.431 34.1815 10.6863 0.0 -47.0808 0.0 
  1.5973500061035155 0.41320098876953126 6.8510400390625 -28.601 50.3044 13.8865 -12.1471 9.6913 0.922594 24.8788 31.7258 1.28439 -8.60048 66.9085 -23.0798 106.283 -46.4352 805.37 -116.1267 3.07422 15.3596 -43.0215 -19.1993 50.1882 0.0 54.8417 0.0 87.2493 -32.4045 -8.85017 0.0 0.0 0.0 0.0 0.0 0.0 111.401505 4.04356 -378.76 17.8843 15.2841 -10.5338 0.0 113.19 0.0 -41.0828 4.52916 -10.7711 0.0 0.0 0.0 0.0 0.0 0.0 1.75166 -36.9901 -1.44277 0.0 51.3253 0.0 -24.5723 25.118801 10.096 0.0 -52.0285 0.0 5.45151 -20.9573 6.68385 0.0 38.6974 0.0 21.5767 33.9408 13.5952 0.0 -47.8449 0.0 
  1.605800018310547 0.39445899963378905 6.8480902099609375 -27.4943 50.3191 13.9903 -12.5354 9.61756 0.554844 25.8409 32.0888 0.636606 -10.211 66.2819 -20.1478 104.998 -45.9293 804.513 -117.0345 2.52406 15.3417 -40.8434 -18.8835 52.7668 0.0 56.6769 0.0 85.5759 -34.3387 -10.1728 0.0 0.0 0.0 0.0 0.0 0.0 110.6644 2.60438 -376.475 19.6029 10.1539 -9.44963 0.0 113.125 0.0 -44.0447 2.57914 -8.35065 0.0 0.0 0.0 0.0 0.0 0.0 1.77408 -36.9067 -2.45877 0.0 52.7016 0.0 -24.6407 25.4599 9.76742 0.0 -52.4537 0.0 5.4277 -21.2698 8.34873 0.0 40.2334 0.0 21.7426 33.343597 16.2026 0.0 -48.8566 0.0 
  1.6131300354003906 0.37359798431396485 6.845449829101563 -26.2884 50.4345 14.0145 -12.8344 9.4296 0.218692 26.4491 32.42 0.0332856 -10.3908 66.0405 -18.9808 103.87 -45.1292 804.153 -117.830795 2.05649 15.3538 -38.7337 -18.6227 54.9785 0.0 58.3743 0.0 83.3566 -35.6129 -11.7371 0.0 0.0 0.0 0.0 0.0 0.0 110.4543 0.409799 -376.124 20.562 6.50977 -6.84315 0.0 112.039 0.0 -46.2825 -0.30968 -6.1562 0.0 0.0 0.0 0.0 0.0 0.0 1.79601 -36.8032 -3.18372 0.0 53.9226 0.0 -24.5229 25.761 9.40094 0.0 -52.9377 0.0 5.42861 -21.6675 10.1838 0.0 41.8302 0.0 22.0048 32.3882 18.6825 0.0 -48.9354 0.0 
  1.6193099975585938 0.3572990036010742 6.844299926757812 -25.3939 50.5039 14.1853 -12.9358 9.29194 -0.030243 26.9006 32.7085 -0.39627 -10.0345 65.9246 -18.5493 102.926 -44.1923 804.266 -118.6182 1.6393 15.4877 -36.7595 -18.1908 56.7036 0.0 59.8777 0.0 81.7082 -37.4214 -13.9174 0.0 0.0 0.0 0.0 0.0 0.0 110.1839 -1.54218 -375.377 22.0886 2.69988 -5.11281 0.0 110.263 0.0 -48.6833 -3.70736 -4.76075 0.0 0.0 0.0 0.0 0.0 0.0 2.21822 -36.6362 -3.40242 0.0 54.9714 0.0 -23.9954 26.117401 9.10439 0.0 -53.3042 0.0 5.93797 -21.6722 13.0487 0.0 42.6148 0.0 23.9861 32.4664 20.3803 0.0 -50.4978 0.0 
  1.6276300048828125 0.3325310134887695 6.837579956054688 -23.968 50.6212 14.0553 -12.9181 9.17238 -0.265516 26.6667 32.9202 -0.799794 -8.74591 65.8145 -19.1463 101.817 -43.1309 804.295 -119.043304 1.29788 15.599 -35.0405 -17.895 58.0734 0.0 61.1746 0.0 79.6474 -38.7465 -15.8309 0.0 0.0 0.0 0.0 0.0 0.0 110.184 -3.16416 -374.115 24.0367 -1.43871 -4.02274 0.0 108.264 0.0 -51.3445 -8.50968 -5.01992 0.0 0.0 0.0 0.0 0.0 0.0 2.23296 -36.3871 -3.51963 0.0 55.8736 0.0 -23.5801 26.3889 8.94886 0.0 -53.4561 0.0 5.68226 -22.1753 13.8898 0.0 44.3423 0.0 23.0524 32.016197 22.4714 0.0 -51.1877 0.0 
  1.6343099975585937 0.3090880012512207 6.8339599609375 -22.8598 50.8614 14.1969 -12.5869 8.91365 -0.539109 26.1279 33.1718 -1.20327 -7.1938 65.8326 -20.1481 101.154 -41.9904 804.709 -119.4035 0.919351 15.4853 -33.3498 -17.7343 59.257 0.0 62.1868 0.0 77.2774 -39.1204 -17.8913 0.0 0.0 0.0 0.0 0.0 0.0 110.4621 -4.55427 -373.135 25.9641 -5.38317 -3.27845 0.0 105.626 0.0 -55.1444 -11.5132 -9.3648 0.0 0.0 0.0 0.0 0.0 0.0 2.49954 -36.2169 -3.37466 0.0 56.5503 0.0 -23.5859 26.644901 8.93923 0.0 -53.9519 0.0 5.89113 -22.4169 15.7637 0.0 45.4208 0.0 22.4846 31.4629 24.3932 0.0 -51.3959 0.0 
  1.641739959716797 0.2848740005493164 6.82844970703125 -21.6578 51.1075 14.2057 -12.2301 8.6182 -0.732034 25.4891 33.3776 -1.48727 -5.51612 65.8955 -21.4267 100.471 -41.0313 804.951 -119.4994 0.836809 15.3794 -32.1321 -17.8016 59.922 0.0 62.9289 0.0 74.4947 -39.2966 -20.8275 0.0 0.0 0.0 0.0 0.0 0.0 110.7198 -5.79536 -372.599 28.4227 -9.36022 -1.50598 0.0 103.041 0.0 -54.6055 -14.2837 -11.91 0.0 0.0 0.0 0.0 0.0 0.0 2.77582 -35.9602 -3.0081 0.0 57.037 0.0 -23.5282 26.7689 8.95211 0.0 -53.9189 0.0 5.98126 -22.7304 17.2306 0.0 46.598 0.0 21.9004 31.928 26.357 0.0 -51.9436 0.0 
  1.6476199340820312 0.26028999328613284 6.82302001953125 -20.6001 51.4028 14.3112 -11.7276 8.48084 -0.954083 24.7086 33.3553 -1.69495 -4.34285 66.0366 -22.3027 100.417 -40.1893 805.535 -119.5069 0.477829 15.0718 -31.0591 -17.7814 60.3111 0.0 63.1808 0.0 70.7762 -37.8439 -24.7535 0.0 0.0 0.0 0.0 0.0 0.0 111.191605 -6.88965 -372.421 30.8863 -12.9863 0.0584305 0.0 100.252 0.0 -55.662 -16.2946 -17.8326 0.0 0.0 0.0 0.0 0.0 0.0 3.19339 -35.7187 -2.45177 0.0 57.3627 0.0 -23.7589 26.7684 9.01264 0.0 -53.98 0.0 6.1892 -23.0342 18.6226 0.0 47.6586 0.0 20.6298 31.8445 28.0725 0.0 -52.3247 0.0 
  1.6503700256347655 0.2418280029296875 6.823930053710938 -19.9674 51.5937 14.6757 -11.1634 8.21078 -1.12934 24.2619 33.5365 -1.87529 -2.79813 66.2971 -23.8263 100.224 -39.5275 806.102 -119.43 0.58586 14.5169 -30.4702 -18.1786 60.2273 0.0 63.1663 0.0 67.5759 -35.852 -28.0242 0.0 0.0 0.0 0.0 0.0 0.0 111.558 -7.68063 -372.243 33.6773 -16.5118 1.83768 0.0 97.3174 0.0 -54.1497 -16.5229 -23.5659 0.0 0.0 0.0 0.0 0.0 0.0 4.05299 -35.3516 -1.59286 0.0 57.4274 0.0 -23.0687 26.737099 8.84457 0.0 -53.7769 0.0 7.16864 -22.695 21.7219 0.0 48.1716 0.0 21.5022 30.2841 27.1935 0.0 -49.9476 0.0 
  1.6608399963378906 0.21160100936889648 6.815250244140625 -18.5724 52.0131 14.504 -10.5762 7.91549 -1.34703 23.0682 33.4801 -2.0878 -1.49122 66.4262 -24.9759 99.9671 -38.9008 806.404 -119.0073 0.404949 13.9472 -30.1092 -18.4974 59.8823 0.0 62.9987 0.0 65.2351 -33.0861 -31.7415 0.0 0.0 0.0 0.0 0.0 0.0 112.1184 -8.6018 -372.264 36.5032 -19.5239 3.26091 0.0 94.5445 0.0 -52.493 -16.6936 -27.7868 0.0 0.0 0.0 0.0 0.0 0.0 4.18638 -35.0267 -0.952752 0.0 57.3354 0.0 -21.9244 26.262299 8.61453 0.0 -53.7629 0.0 6.85315 -23.4919 21.7439 0.0 50.1431 0.0 19.9477 27.845299 24.4254 0.0 -48.9382 0.0 
  1.670800018310547 0.18617500305175783 6.81052001953125 -17.4541 52.4443 14.4106 -9.95689 7.58151 -1.57446 22.0202 33.4708 -2.31436 -0.506319 66.7012 -25.9195 99.9317 -38.4164 806.892 -118.717804 0.129589 13.3629 -29.9661 -18.7212 58.8638 0.0 62.557 0.0 63.6315 -30.3571 -33.3309 0.0 0.0 0.0 0.0 0.0 0.0 112.7025 -9.33662 -372.207 39.1631 -22.2251 4.07907 0.0 92.0522 0.0 -51.3159 -18.1718 -28.9711 0.0 0.0 0.0 0.0 0.0 0.0 4.58687 -34.6663 -0.0941932 0.0 56.9912 0.0 -20.3975 25.459301 8.39369 0.0 -53.3489 0.0 6.87166 -24.0368 22.2604 0.0 51.676 0.0 21.3595 26.8755 20.4414 0.0 -48.8285 0.0 
  1.6936500549316407 0.18119300842285158 6.791160278320312 -16.7858 53.1464 13.6232 -8.98642 7.46938 -1.34439 20.2846 32.9025 -1.7634 0.409639 67.0376 -26.871 99.9915 -38.0124 807.442 -118.5646 -0.253882 12.8871 -29.8911 -18.867 57.0727 0.0 62.1708 0.0 62.4248 -27.8227 -33.5612 0.0 0.0 0.0 0.0 0.0 0.0 113.2257 -10.0681 -371.918 41.6649 -24.7616 4.12817 0.0 89.5979 0.0 -50.3711 -19.3353 -27.8075 0.0 0.0 0.0 0.0 0.0 0.0 5.66051 -34.5661 1.76511 0.0 56.5121 0.0 -19.2572 24.37565 8.58657 0.0 -52.99 0.0 7.40421 -25.1104 23.6579 0.0 53.2158 0.0 23.146 26.7658 17.8822 0.0 -47.9512 0.0 
  1.6915899658203124 0.13981300354003906 6.807169799804687 -15.7123 52.9526 14.6542 -8.64575 7.22105 -2.18365 20.3388 33.4995 -2.92452 1.32062 67.168 -27.855 99.8542 -37.6715 807.923 -118.4778 -0.735126 12.0448 -30.1084 -19.0898 54.2263 0.0 62.0641 0.0 61.019 -26.4734 -34.3468 0.0 0.0 0.0 0.0 0.0 0.0 113.6364 -10.6533 -371.88 44.1103 -26.7081 3.89861 0.0 87.4805 0.0 -49.6007 -20.8076 -23.9237 0.0 0.0 0.0 0.0 0.0 0.0 5.57794 -33.6116 1.35286 0.0 55.7042 0.0 -18.383 23.53695 8.63432 0.0 -52.4424 0.0 7.17629 -24.6132 22.5932 0.0 54.5747 0.0 24.7752 24.78006 14.7065 0.0 -47.4288 0.0 
  1.6998899841308595 0.11910799980163574 6.808790283203125 -15.0156 53.2691 14.8634 -8.21689 6.94532 -2.5805 19.8429 33.6045 -3.40893 1.79056 67.2525 -28.3182 99.7053 -37.383 808.374 -118.4478 -1.44595 11.2166 -30.5974 -19.0692 50.7196 0.0 62.0122 0.0 60.6232 -25.2968 -33.9719 0.0 0.0 0.0 0.0 0.0 0.0 114.0637 -11.0305 -372.102 46.3214 -28.2848 3.25199 0.0 86.1566 0.0 -49.4898 -22.7615 -21.7184 0.0 0.0 0.0 0.0 0.0 0.0 6.12701 -33.1159 2.01849 0.0 54.7761 0.0 -17.7111 22.83754 8.93518 0.0 -51.8661 0.0 7.41022 -25.138 22.2157 0.0 56.0912 0.0 26.5163 23.49081 10.8318 0.0 -47.8991 0.0 
